<svg viewBox="0 0 24 24" xmlns="http://www.w3.org/2000/svg" style="fill-rule:evenodd;clip-rule:evenodd;stroke-linecap:round;stroke-linejoin:round;">
    <rect x="0" y="0" width="24" height="24" style="fill:none;fill-rule:nonzero;"/>
    <g transform="matrix(1,0,0,1,3.32226,8.88178e-16)">
        <circle cx="5" cy="5" r="1" style="fill:none;stroke:currentColor;stroke-width:2px;"/>
    </g>
    <g transform="matrix(1,0,0,1,-3.32226,8.88178e-16)">
        <circle cx="19" cy="5" r="1" style="fill:none;stroke:currentColor;stroke-width:2px;"/>
    </g>
    <g transform="matrix(1,0,0,1,3.32226,8.88178e-16)">
        <circle cx="5" cy="12" r="1" style="fill:none;stroke:currentColor;stroke-width:2px;"/>
    </g>
    <g transform="matrix(1,0,0,1,-3.32226,8.88178e-16)">
        <circle cx="19" cy="12" r="1" style="fill:none;stroke:currentColor;stroke-width:2px;"/>
    </g>
    <g transform="matrix(1,0,0,1,3.32226,8.88178e-16)">
        <circle cx="5" cy="19" r="1" style="fill:none;stroke:currentColor;stroke-width:2px;"/>
    </g>
    <g transform="matrix(1,0,0,1,-3.32226,8.88178e-16)">
        <circle cx="19" cy="19" r="1" style="fill:none;stroke:currentColor;stroke-width:2px;"/>
    </g>
</svg>
