<?xml version="1.0" encoding="UTF-8" standalone="no"?>
<!DOCTYPE svg PUBLIC "-//W3C//DTD SVG 1.1//EN" "http://www.w3.org/Graphics/SVG/1.1/DTD/svg11.dtd">
<svg width="100%" height="100%" viewBox="0 0 160 28" version="1.1" xmlns="http://www.w3.org/2000/svg" xmlns:xlink="http://www.w3.org/1999/xlink" xml:space="preserve" xmlns:serif="http://www.serif.com/" style="fill-rule:evenodd;clip-rule:evenodd;stroke-linejoin:round;stroke-miterlimit:2;">
    <g transform="matrix(0.774575,0,0,0.774575,-22.1941,-37.3075)">
        <g transform="matrix(1,0,0,1,-20.459,8.05687)">
            <circle cx="67.125" cy="58.121" r="18.013" style="fill:rgb(255,253,167);"/>
            <clipPath id="_clip1">
                <circle cx="67.125" cy="58.121" r="18.013"/>
            </clipPath>
            <g clip-path="url(#_clip1)">
                <g transform="matrix(1.82578,0,0,1.56891,5.88638,-30.8433)">
                    <g transform="matrix(18.0636,0,0,18.0636,25.5398,61.7764)">
                        <path d="M0.159,-0.406C0.169,-0.459 0.182,-0.504 0.196,-0.54C0.21,-0.577 0.225,-0.607 0.242,-0.631C0.259,-0.654 0.278,-0.672 0.297,-0.685C0.315,-0.696 0.333,-0.705 0.353,-0.709C0.372,-0.714 0.392,-0.716 0.413,-0.716C0.42,-0.716 0.428,-0.715 0.438,-0.714C0.447,-0.713 0.456,-0.712 0.466,-0.71C0.475,-0.708 0.484,-0.706 0.491,-0.704L0.491,-0.616L0.472,-0.616C0.463,-0.62 0.454,-0.623 0.444,-0.627C0.433,-0.631 0.422,-0.634 0.41,-0.637C0.398,-0.639 0.386,-0.641 0.373,-0.641C0.347,-0.641 0.329,-0.638 0.318,-0.631C0.306,-0.625 0.299,-0.617 0.296,-0.607C0.295,-0.602 0.292,-0.593 0.289,-0.579C0.286,-0.566 0.282,-0.55 0.278,-0.532C0.274,-0.513 0.27,-0.495 0.266,-0.477C0.262,-0.459 0.259,-0.443 0.256,-0.429L0.178,-0.03C0.17,0.008 0.158,0.042 0.141,0.074C0.124,0.105 0.104,0.132 0.08,0.155C0.057,0.178 0.032,0.196 0.004,0.209C-0.023,0.221 -0.05,0.228 -0.078,0.228C-0.085,0.228 -0.093,0.227 -0.1,0.226C-0.108,0.225 -0.116,0.224 -0.124,0.222C-0.132,0.22 -0.139,0.219 -0.147,0.217L-0.147,0.128L-0.127,0.128C-0.118,0.131 -0.109,0.134 -0.1,0.137C-0.091,0.141 -0.081,0.143 -0.07,0.146C-0.06,0.148 -0.048,0.149 -0.035,0.149C-0.022,0.149 -0.01,0.148 0.001,0.145C0.011,0.142 0.021,0.136 0.029,0.129C0.032,0.126 0.038,0.117 0.044,0.103C0.051,0.088 0.058,0.069 0.066,0.044C0.073,0.019 0.08,-0.009 0.087,-0.042L0.159,-0.406ZM0.072,-0.476L0.395,-0.476L0.395,-0.419L0.072,-0.419L0.072,-0.476Z" style="fill-rule:nonzero;"/>
                    </g>
                    <g transform="matrix(18.0636,0,0,18.0636,31.278,61.7764)">
                        <path d="M0.242,0.01C0.226,0.01 0.208,0.007 0.186,0.001C0.165,-0.005 0.144,-0.016 0.123,-0.031C0.102,-0.047 0.085,-0.068 0.071,-0.095C0.057,-0.122 0.05,-0.156 0.05,-0.198C0.05,-0.236 0.057,-0.274 0.07,-0.312C0.084,-0.35 0.104,-0.384 0.129,-0.415C0.154,-0.446 0.185,-0.471 0.22,-0.489C0.255,-0.508 0.294,-0.517 0.337,-0.517C0.361,-0.517 0.384,-0.513 0.408,-0.506C0.432,-0.498 0.452,-0.486 0.468,-0.469C0.484,-0.452 0.492,-0.429 0.492,-0.401C0.492,-0.371 0.484,-0.346 0.468,-0.325C0.452,-0.305 0.431,-0.288 0.405,-0.275C0.379,-0.263 0.35,-0.254 0.319,-0.248C0.287,-0.242 0.256,-0.24 0.225,-0.24C0.216,-0.24 0.205,-0.24 0.195,-0.241C0.184,-0.241 0.175,-0.242 0.166,-0.243C0.157,-0.244 0.149,-0.245 0.143,-0.246L0.145,-0.294C0.174,-0.292 0.194,-0.29 0.204,-0.289C0.214,-0.289 0.223,-0.288 0.228,-0.288C0.278,-0.288 0.318,-0.297 0.347,-0.315C0.377,-0.333 0.392,-0.363 0.392,-0.404C0.392,-0.423 0.385,-0.438 0.372,-0.448C0.359,-0.458 0.344,-0.464 0.326,-0.464C0.299,-0.464 0.274,-0.455 0.252,-0.439C0.229,-0.423 0.21,-0.403 0.195,-0.377C0.179,-0.352 0.167,-0.326 0.158,-0.298C0.15,-0.27 0.146,-0.244 0.146,-0.22C0.146,-0.19 0.151,-0.163 0.16,-0.139C0.169,-0.115 0.185,-0.096 0.205,-0.082C0.226,-0.068 0.253,-0.061 0.287,-0.061C0.311,-0.061 0.334,-0.066 0.358,-0.077C0.382,-0.087 0.411,-0.103 0.448,-0.125L0.468,-0.125L0.468,-0.062C0.441,-0.047 0.416,-0.034 0.392,-0.023C0.368,-0.013 0.344,-0.004 0.32,0.002C0.296,0.007 0.27,0.01 0.242,0.01Z" style="fill-rule:nonzero;"/>
                    </g>
                </g>
            </g>
        </g>
        <g transform="matrix(0.349811,0,0,0.349811,36.4778,55.8077)">
            <g transform="matrix(66.6667,0,0,66.6667,65.2177,48.145)">
                <path d="M0.02,-0.215L0.047,-0.34L0.442,-0.34L0.415,-0.215L0.02,-0.215Z" style="fill-rule:nonzero;"/>
            </g>
        </g>
        <g transform="matrix(0.405481,0,0,0.405481,51.7473,53.1275)">
            <g transform="matrix(66.6667,0,0,66.6667,65.2177,48.145)">
                <path d="M0.06,-0L0.06,-0.038L0.133,-0.063C0.138,-0.065 0.142,-0.067 0.145,-0.07C0.147,-0.073 0.149,-0.078 0.149,-0.085L0.149,-0.576C0.149,-0.582 0.147,-0.586 0.144,-0.59C0.141,-0.593 0.137,-0.595 0.133,-0.596L0.06,-0.623L0.06,-0.66L0.582,-0.66L0.582,-0.493L0.52,-0.493L0.506,-0.58C0.505,-0.586 0.503,-0.591 0.5,-0.594C0.496,-0.596 0.492,-0.598 0.487,-0.598L0.248,-0.598L0.248,-0.365L0.394,-0.365C0.4,-0.365 0.405,-0.367 0.408,-0.37C0.411,-0.372 0.413,-0.377 0.414,-0.382L0.427,-0.454L0.477,-0.454L0.477,-0.216L0.427,-0.216L0.414,-0.286C0.413,-0.292 0.411,-0.296 0.408,-0.299C0.405,-0.302 0.4,-0.303 0.394,-0.303L0.248,-0.303L0.248,-0.085C0.248,-0.078 0.25,-0.073 0.254,-0.07C0.257,-0.067 0.261,-0.065 0.265,-0.063L0.342,-0.038L0.342,-0L0.06,-0Z" style="fill-rule:nonzero;"/>
            </g>
            <g transform="matrix(66.6667,0,0,66.6667,103.795,48.145)">
                <path d="M0.051,-0L0.051,-0.037L0.108,-0.057C0.113,-0.059 0.117,-0.061 0.12,-0.064C0.124,-0.067 0.125,-0.072 0.125,-0.078L0.125,-0.399C0.125,-0.407 0.123,-0.413 0.119,-0.417C0.114,-0.421 0.11,-0.423 0.107,-0.425L0.046,-0.452L0.046,-0.49L0.213,-0.513L0.213,-0.405L0.219,-0.405C0.24,-0.435 0.259,-0.457 0.276,-0.474C0.294,-0.49 0.31,-0.501 0.326,-0.507C0.341,-0.514 0.357,-0.517 0.372,-0.517C0.386,-0.517 0.401,-0.515 0.418,-0.512C0.435,-0.508 0.45,-0.5 0.463,-0.487L0.463,-0.372L0.398,-0.372L0.384,-0.405C0.381,-0.413 0.375,-0.42 0.366,-0.425C0.356,-0.43 0.346,-0.433 0.336,-0.433C0.317,-0.433 0.302,-0.429 0.288,-0.42C0.274,-0.411 0.262,-0.401 0.251,-0.389C0.24,-0.376 0.23,-0.365 0.22,-0.354L0.22,-0.078C0.22,-0.068 0.226,-0.061 0.238,-0.057L0.312,-0.037L0.312,-0L0.051,-0Z" style="fill-rule:nonzero;"/>
            </g>
            <g transform="matrix(66.6667,0,0,66.6667,133.336,48.145)">
                <path d="M0.299,0.012C0.25,0.012 0.207,0.001 0.171,-0.02C0.134,-0.041 0.105,-0.072 0.085,-0.111C0.064,-0.151 0.054,-0.197 0.054,-0.252C0.054,-0.302 0.064,-0.347 0.084,-0.387C0.105,-0.427 0.134,-0.459 0.171,-0.482C0.208,-0.505 0.252,-0.517 0.303,-0.517C0.359,-0.517 0.404,-0.505 0.44,-0.48C0.477,-0.456 0.504,-0.424 0.521,-0.384C0.539,-0.344 0.548,-0.301 0.548,-0.254C0.548,-0.204 0.538,-0.159 0.518,-0.119C0.498,-0.079 0.469,-0.047 0.432,-0.024C0.394,-0 0.35,0.012 0.299,0.012ZM0.305,-0.044C0.332,-0.044 0.355,-0.05 0.372,-0.062C0.39,-0.074 0.404,-0.09 0.415,-0.11C0.425,-0.13 0.432,-0.151 0.437,-0.175C0.441,-0.198 0.444,-0.221 0.444,-0.244C0.444,-0.281 0.439,-0.316 0.429,-0.348C0.419,-0.381 0.403,-0.408 0.382,-0.429C0.361,-0.45 0.332,-0.461 0.296,-0.461C0.27,-0.461 0.247,-0.455 0.23,-0.443C0.212,-0.431 0.197,-0.415 0.187,-0.396C0.177,-0.376 0.169,-0.355 0.165,-0.332C0.16,-0.309 0.158,-0.286 0.158,-0.264C0.158,-0.239 0.161,-0.213 0.166,-0.188C0.17,-0.162 0.178,-0.138 0.19,-0.117C0.201,-0.095 0.216,-0.077 0.235,-0.064C0.254,-0.051 0.277,-0.044 0.305,-0.044Z" style="fill-rule:nonzero;"/>
            </g>
            <g transform="matrix(66.6667,0,0,66.6667,170.521,48.145)">
                <path d="M0.048,-0L0.048,-0.037L0.105,-0.057C0.111,-0.059 0.115,-0.061 0.118,-0.064C0.121,-0.067 0.123,-0.072 0.123,-0.078L0.123,-0.406C0.123,-0.412 0.121,-0.417 0.118,-0.419C0.114,-0.422 0.11,-0.425 0.105,-0.427L0.048,-0.452L0.048,-0.49L0.208,-0.513L0.208,-0.434L0.215,-0.434C0.234,-0.459 0.253,-0.477 0.272,-0.488C0.29,-0.5 0.309,-0.508 0.327,-0.511C0.345,-0.515 0.363,-0.517 0.38,-0.517C0.409,-0.517 0.436,-0.511 0.46,-0.5C0.485,-0.488 0.504,-0.47 0.519,-0.445C0.534,-0.42 0.541,-0.388 0.541,-0.349L0.541,-0.08C0.541,-0.073 0.543,-0.068 0.546,-0.065C0.549,-0.062 0.553,-0.059 0.558,-0.057L0.609,-0.037L0.609,-0L0.382,-0L0.382,-0.037L0.427,-0.057C0.432,-0.06 0.437,-0.062 0.44,-0.065C0.444,-0.068 0.446,-0.073 0.446,-0.08L0.446,-0.307C0.446,-0.336 0.443,-0.36 0.438,-0.38C0.432,-0.401 0.422,-0.416 0.407,-0.426C0.391,-0.437 0.368,-0.442 0.338,-0.442C0.318,-0.442 0.296,-0.439 0.274,-0.432C0.251,-0.426 0.233,-0.414 0.218,-0.396L0.218,-0.078C0.218,-0.072 0.22,-0.067 0.224,-0.065C0.227,-0.062 0.231,-0.059 0.236,-0.057L0.278,-0.037L0.278,-0L0.048,-0Z" style="fill-rule:nonzero;"/>
            </g>
            <g transform="matrix(66.6667,0,0,66.6667,210.847,48.145)">
                <path d="M0.384,-0.504L0.384,-0.447L0.206,-0.447L0.206,-0.127C0.206,-0.112 0.212,-0.1 0.223,-0.091C0.234,-0.082 0.247,-0.075 0.262,-0.071C0.277,-0.067 0.289,-0.065 0.3,-0.065C0.311,-0.065 0.323,-0.067 0.338,-0.071C0.353,-0.075 0.363,-0.078 0.37,-0.081L0.388,-0.081L0.388,-0.04C0.383,-0.036 0.373,-0.031 0.358,-0.023C0.343,-0.015 0.325,-0.008 0.306,-0.002C0.287,0.005 0.267,0.008 0.248,0.008C0.224,0.008 0.202,0.004 0.181,-0.004C0.161,-0.012 0.144,-0.023 0.131,-0.038C0.118,-0.053 0.112,-0.07 0.112,-0.091L0.112,-0.447L0.03,-0.447L0.03,-0.495C0.048,-0.497 0.063,-0.5 0.076,-0.503C0.089,-0.506 0.1,-0.512 0.108,-0.522C0.116,-0.531 0.12,-0.547 0.121,-0.568L0.126,-0.639L0.206,-0.654L0.206,-0.504L0.384,-0.504Z" style="fill-rule:nonzero;"/>
            </g>
            <g transform="matrix(66.6667,0,0,66.6667,236.151,48.145)">
                <path d="M0.06,-0L0.06,-0.038L0.133,-0.063C0.138,-0.065 0.141,-0.067 0.144,-0.07C0.147,-0.073 0.149,-0.078 0.149,-0.085L0.149,-0.576C0.149,-0.582 0.147,-0.586 0.144,-0.59C0.141,-0.593 0.137,-0.595 0.133,-0.596L0.06,-0.623L0.06,-0.66L0.58,-0.66L0.58,-0.493L0.518,-0.493L0.504,-0.58C0.504,-0.586 0.501,-0.591 0.498,-0.594C0.494,-0.596 0.49,-0.598 0.485,-0.598L0.248,-0.598L0.248,-0.374L0.387,-0.374C0.393,-0.374 0.398,-0.375 0.4,-0.378C0.403,-0.38 0.405,-0.385 0.406,-0.391L0.42,-0.462L0.47,-0.462L0.47,-0.224L0.42,-0.224L0.406,-0.294C0.405,-0.3 0.403,-0.305 0.4,-0.308C0.398,-0.311 0.393,-0.312 0.387,-0.312L0.248,-0.312L0.248,-0.062L0.519,-0.062C0.523,-0.062 0.527,-0.063 0.531,-0.066C0.535,-0.07 0.537,-0.074 0.538,-0.08L0.552,-0.177L0.614,-0.177L0.614,-0L0.06,-0Z" style="fill-rule:nonzero;"/>
            </g>
            <g transform="matrix(66.6667,0,0,66.6667,278.166,48.145)">
                <path d="M0.048,-0L0.048,-0.037L0.105,-0.057C0.111,-0.059 0.115,-0.061 0.118,-0.064C0.121,-0.067 0.123,-0.072 0.123,-0.078L0.123,-0.406C0.123,-0.412 0.121,-0.417 0.118,-0.419C0.114,-0.422 0.11,-0.425 0.105,-0.427L0.048,-0.452L0.048,-0.49L0.208,-0.513L0.208,-0.434L0.215,-0.434C0.234,-0.459 0.253,-0.477 0.272,-0.488C0.29,-0.5 0.309,-0.508 0.327,-0.511C0.345,-0.515 0.363,-0.517 0.38,-0.517C0.409,-0.517 0.436,-0.511 0.46,-0.5C0.485,-0.488 0.504,-0.47 0.519,-0.445C0.534,-0.42 0.541,-0.388 0.541,-0.349L0.541,-0.08C0.541,-0.073 0.543,-0.068 0.546,-0.065C0.549,-0.062 0.553,-0.059 0.558,-0.057L0.609,-0.037L0.609,-0L0.382,-0L0.382,-0.037L0.427,-0.057C0.432,-0.06 0.437,-0.062 0.44,-0.065C0.444,-0.068 0.446,-0.073 0.446,-0.08L0.446,-0.307C0.446,-0.336 0.443,-0.36 0.438,-0.38C0.432,-0.401 0.422,-0.416 0.407,-0.426C0.391,-0.437 0.368,-0.442 0.338,-0.442C0.318,-0.442 0.296,-0.439 0.274,-0.432C0.251,-0.426 0.233,-0.414 0.218,-0.396L0.218,-0.078C0.218,-0.072 0.22,-0.067 0.224,-0.065C0.227,-0.062 0.231,-0.059 0.236,-0.057L0.278,-0.037L0.278,-0L0.048,-0Z" style="fill-rule:nonzero;"/>
            </g>
            <g transform="matrix(66.6667,0,0,66.6667,318.492,48.145)">
                <path d="M0.274,-0.174C0.253,-0.174 0.234,-0.176 0.215,-0.18C0.197,-0.184 0.184,-0.188 0.176,-0.192C0.17,-0.188 0.164,-0.182 0.157,-0.174C0.151,-0.165 0.148,-0.154 0.148,-0.14C0.148,-0.129 0.152,-0.119 0.159,-0.109C0.166,-0.099 0.174,-0.092 0.183,-0.088L0.36,-0.088C0.404,-0.088 0.438,-0.082 0.463,-0.069C0.488,-0.057 0.506,-0.041 0.517,-0.021C0.528,-0.002 0.534,0.018 0.534,0.038C0.534,0.075 0.522,0.108 0.498,0.136C0.475,0.165 0.443,0.187 0.402,0.203C0.362,0.219 0.317,0.228 0.267,0.228C0.224,0.228 0.186,0.223 0.152,0.213C0.118,0.203 0.091,0.189 0.071,0.17C0.051,0.151 0.041,0.128 0.041,0.101C0.041,0.07 0.051,0.045 0.072,0.026C0.092,0.008 0.116,-0.005 0.143,-0.012L0.143,-0.019C0.132,-0.023 0.121,-0.028 0.109,-0.036C0.098,-0.043 0.089,-0.053 0.081,-0.064C0.074,-0.076 0.07,-0.09 0.07,-0.106C0.07,-0.125 0.074,-0.142 0.083,-0.155C0.091,-0.169 0.102,-0.18 0.115,-0.189C0.129,-0.197 0.142,-0.203 0.155,-0.205L0.155,-0.212C0.145,-0.218 0.134,-0.226 0.121,-0.238C0.109,-0.249 0.098,-0.263 0.089,-0.28C0.08,-0.297 0.075,-0.317 0.075,-0.341C0.075,-0.376 0.083,-0.407 0.099,-0.433C0.115,-0.459 0.139,-0.48 0.169,-0.495C0.199,-0.509 0.235,-0.517 0.276,-0.517C0.301,-0.517 0.322,-0.516 0.34,-0.513C0.359,-0.511 0.377,-0.508 0.394,-0.504L0.556,-0.504L0.556,-0.446L0.443,-0.446L0.443,-0.44C0.453,-0.426 0.462,-0.412 0.469,-0.398C0.476,-0.385 0.48,-0.366 0.48,-0.34C0.48,-0.292 0.461,-0.253 0.425,-0.221C0.389,-0.19 0.339,-0.174 0.274,-0.174ZM0.273,-0.221C0.296,-0.221 0.315,-0.225 0.332,-0.234C0.348,-0.242 0.36,-0.256 0.369,-0.274C0.378,-0.293 0.382,-0.317 0.382,-0.347C0.382,-0.39 0.372,-0.421 0.353,-0.44C0.333,-0.459 0.307,-0.469 0.275,-0.469C0.259,-0.469 0.243,-0.465 0.227,-0.458C0.212,-0.451 0.2,-0.438 0.19,-0.42C0.18,-0.403 0.175,-0.378 0.175,-0.347C0.175,-0.302 0.184,-0.27 0.203,-0.25C0.221,-0.231 0.245,-0.221 0.273,-0.221ZM0.288,0.171C0.315,0.171 0.341,0.167 0.366,0.16C0.391,0.154 0.411,0.143 0.428,0.127C0.444,0.112 0.452,0.091 0.452,0.065C0.452,0.049 0.444,0.032 0.429,0.016C0.413,-0.001 0.388,-0.009 0.353,-0.009L0.192,-0.009C0.179,-0.005 0.167,0.003 0.154,0.017C0.141,0.031 0.135,0.05 0.135,0.074C0.135,0.093 0.14,0.109 0.151,0.122C0.161,0.134 0.175,0.144 0.191,0.151C0.207,0.158 0.224,0.163 0.242,0.166C0.259,0.169 0.274,0.171 0.288,0.171Z" style="fill-rule:nonzero;"/>
            </g>
            <g transform="matrix(66.6667,0,0,66.6667,355.084,48.145)">
                <path d="M0.176,-0.594C0.164,-0.594 0.153,-0.596 0.142,-0.601C0.132,-0.606 0.123,-0.612 0.117,-0.621C0.11,-0.63 0.107,-0.641 0.107,-0.654C0.107,-0.675 0.114,-0.69 0.128,-0.7C0.142,-0.711 0.158,-0.716 0.176,-0.716C0.198,-0.716 0.215,-0.711 0.228,-0.702C0.241,-0.692 0.248,-0.678 0.248,-0.659C0.248,-0.645 0.245,-0.633 0.239,-0.624C0.232,-0.614 0.224,-0.606 0.213,-0.601C0.203,-0.596 0.19,-0.594 0.176,-0.594ZM0.045,-0L0.045,-0.037L0.12,-0.057C0.125,-0.059 0.129,-0.061 0.132,-0.064C0.136,-0.067 0.138,-0.072 0.138,-0.078L0.138,-0.4C0.138,-0.407 0.136,-0.411 0.132,-0.414C0.129,-0.418 0.125,-0.42 0.12,-0.421L0.046,-0.446L0.046,-0.484L0.233,-0.507L0.233,-0.078C0.233,-0.072 0.235,-0.067 0.238,-0.064C0.242,-0.061 0.246,-0.059 0.25,-0.057L0.324,-0.037L0.324,-0L0.045,-0Z" style="fill-rule:nonzero;"/>
            </g>
            <g transform="matrix(66.6667,0,0,66.6667,376.684,48.145)">
                <path d="M0.048,-0L0.048,-0.037L0.105,-0.057C0.111,-0.059 0.115,-0.061 0.118,-0.064C0.121,-0.067 0.123,-0.072 0.123,-0.078L0.123,-0.406C0.123,-0.412 0.121,-0.417 0.118,-0.419C0.114,-0.422 0.11,-0.425 0.105,-0.427L0.048,-0.452L0.048,-0.49L0.208,-0.513L0.208,-0.434L0.215,-0.434C0.234,-0.459 0.253,-0.477 0.272,-0.488C0.29,-0.5 0.309,-0.508 0.327,-0.511C0.345,-0.515 0.363,-0.517 0.38,-0.517C0.409,-0.517 0.436,-0.511 0.46,-0.5C0.485,-0.488 0.504,-0.47 0.519,-0.445C0.534,-0.42 0.541,-0.388 0.541,-0.349L0.541,-0.08C0.541,-0.073 0.543,-0.068 0.546,-0.065C0.549,-0.062 0.553,-0.059 0.558,-0.057L0.609,-0.037L0.609,-0L0.382,-0L0.382,-0.037L0.427,-0.057C0.432,-0.06 0.437,-0.062 0.44,-0.065C0.444,-0.068 0.446,-0.073 0.446,-0.08L0.446,-0.307C0.446,-0.336 0.443,-0.36 0.438,-0.38C0.432,-0.401 0.422,-0.416 0.407,-0.426C0.391,-0.437 0.368,-0.442 0.338,-0.442C0.318,-0.442 0.296,-0.439 0.274,-0.432C0.251,-0.426 0.233,-0.414 0.218,-0.396L0.218,-0.078C0.218,-0.072 0.22,-0.067 0.224,-0.065C0.227,-0.062 0.231,-0.059 0.236,-0.057L0.278,-0.037L0.278,-0L0.048,-0Z" style="fill-rule:nonzero;"/>
            </g>
            <g transform="matrix(66.6667,0,0,66.6667,417.01,48.145)">
                <path d="M0.295,0.011C0.249,0.011 0.208,0.001 0.171,-0.019C0.134,-0.039 0.105,-0.068 0.083,-0.107C0.061,-0.146 0.05,-0.193 0.05,-0.248C0.05,-0.299 0.06,-0.345 0.081,-0.386C0.102,-0.426 0.131,-0.458 0.168,-0.482C0.205,-0.505 0.247,-0.517 0.295,-0.517C0.34,-0.517 0.379,-0.508 0.411,-0.49C0.443,-0.471 0.468,-0.447 0.485,-0.417C0.503,-0.386 0.511,-0.353 0.511,-0.316C0.511,-0.313 0.511,-0.307 0.511,-0.3C0.51,-0.294 0.51,-0.287 0.509,-0.28C0.508,-0.273 0.507,-0.267 0.506,-0.263L0.142,-0.263L0.145,-0.316L0.409,-0.316C0.409,-0.346 0.405,-0.373 0.397,-0.394C0.39,-0.416 0.377,-0.432 0.36,-0.444C0.342,-0.455 0.319,-0.461 0.289,-0.461C0.261,-0.461 0.238,-0.455 0.22,-0.444C0.202,-0.432 0.188,-0.417 0.177,-0.398C0.167,-0.379 0.159,-0.358 0.155,-0.336C0.151,-0.313 0.148,-0.29 0.148,-0.268C0.148,-0.228 0.154,-0.192 0.166,-0.162C0.178,-0.131 0.198,-0.107 0.224,-0.089C0.25,-0.072 0.285,-0.063 0.328,-0.063C0.351,-0.063 0.374,-0.067 0.395,-0.074C0.416,-0.081 0.435,-0.089 0.452,-0.099C0.469,-0.109 0.483,-0.118 0.494,-0.126L0.509,-0.126L0.509,-0.068C0.485,-0.049 0.454,-0.032 0.416,-0.015C0.378,0.002 0.338,0.011 0.295,0.011Z" style="fill-rule:nonzero;"/>
            </g>
        </g>
    </g>
</svg>
